<svg version="1.1" id="Layer_1" xmlns="http://www.w3.org/2000/svg" x="0" y="0" viewBox="0 0 32.8 29.3" xml:space="preserve"><g id="XMLID_247_"><path id="XMLID_248_" d="M32.4 9.7L23 .3c-.2-.2-.4-.3-.8-.3s-.6.1-.8.3c-.2.2-.3.5-.3.8v4.7H17c-8.7 0-14 2.5-16 7.4-.6 1.6-1 3.7-1 6.1 0 2 .8 4.8 2.3 8.3 0 .1.1.2.2.4s.2.4.2.5c.1.2.2.4.3.5.1.2.3.3.5.3s.3-.1.4-.2c.1-.1.2-.3.2-.5v-.9c-.1-.8-.1-1.6-.1-2.3 0-1.2.1-2.3.3-3.3.2-1 .5-1.8.9-2.5s.9-1.3 1.5-1.8 1.2-.9 1.9-1.3c.7-.3 1.5-.6 2.4-.8.9-.2 1.9-.3 2.8-.4.9-.1 2-.1 3.2-.1h4.1v4.7c0 .3.1.6.3.8.2.2.5.3.8.3.3 0 .6-.1.8-.3l9.4-9.4c.2-.2.3-.5.3-.8.1-.3 0-.6-.3-.8z" fill="#fff"/></g></svg>