<svg version="1.1" id="Layer_1" xmlns="http://www.w3.org/2000/svg" x="0" y="0" viewBox="0 0 164.8 163.6" xml:space="preserve"><style>.st0{fill:#fff}</style><g id="XMLID_238_"><path id="XMLID_311_" class="st0" d="M37.8 120.7h-4.1v-20.6h-2.4v20.6h-4.1v-46h4.1v21.6h2.4V74.7h4.1v46z"/><path id="XMLID_308_" class="st0" d="M52.3 116.6c0 1.4-.6 2.5-1.7 3.3-1 .7-2.2 1-3.7 1-3.7 0-5.5-1.8-5.5-5.5V80.3c0-3.6 1.8-5.4 5.5-5.4 1.5 0 2.7.3 3.7.9 1.2.7 1.8 1.8 1.8 3.1v20.2h-6.8v17.4c0 .8.5 1.2 1.4 1.2.9 0 1.3-.4 1.3-1.2v-15.4h4.1v15.5zm-4.1-20.2V79c0-.8-.4-1.2-1.3-1.2s-1.4.4-1.4 1.2v17.3h2.7z"/><path id="XMLID_303_" class="st0" d="M67.1 120.7h-4.3c-.3-.8-.5-2.5-.5-5.1v-15.4c0-1.2-.8-1.7-2.5-1.7v22.3h-4.1V74.6h4.9c3.9 0 5.8 1.7 5.8 5.1V92c0 2.7-1.3 4.2-4 4.7v.2c2.7 0 4 1.3 4 3.9v15c0 2.3.3 4 .7 4.9zm-4.8-27.6V79.6c0-1.2-.5-1.8-1.6-1.8h-.9V95h.9c1.1 0 1.6-.6 1.6-1.9z"/><path id="XMLID_299_" class="st0" d="M81.1 115.6c0 3.4-1.9 5.1-5.8 5.1h-4.9V74.9h4.9c3.9 0 5.8 1.7 5.8 5.1v13.7c0 2.3-1.3 3.7-4 4.2v.2c2.7.3 4 1.5 4 3.9v13.6zm-4.1-21V79.9c0-1.2-.5-1.9-1.6-1.9h-.9v18.3h.9c1.1.1 1.6-.5 1.6-1.7zm0 20.9v-14c0-1.2-.5-1.8-1.6-1.8h-.9v17.6h.9c1.1 0 1.6-.6 1.6-1.8z"/><path id="XMLID_296_" class="st0" d="M90.6 120.7c0-.4 0-1-.1-1.7-.7 1.3-1.6 1.9-2.8 1.9-1 0-1.9-.4-2.6-1.2s-1-1.7-1-2.7v-16.7c0-1.2 1.1-2.4 3.2-3.8s3.2-2.8 3.2-4.4V78.9c0-.8-.4-1.2-1.3-1.2s-1.3.4-1.3 1.2v14H84V79.3c0-2.9 1.7-4.3 5.1-4.3 3.6 0 5.3 1.4 5.3 4.3v41.4h-3.8zm-.2-4.1V97.2c-1 .6-1.6 1-1.8 1.2-.6.6-.9 1.2-.9 1.9v16.4c0 .8.4 1.2 1.3 1.2 1-.1 1.4-.5 1.4-1.3z"/><path id="XMLID_245_" class="st0" d="M107 120.7h-9.1v-46h4.1v42.2h5v3.8z"/><path id="XMLID_243_" class="st0" d="M113.6 120.7h-4.1v-46h4.1v46z"/><path id="XMLID_241_" class="st0" d="M127.4 116c0 3.6-1.8 5.3-5.3 5.3-3.6 0-5.3-1.8-5.3-5.3v-9.7h4.1v9.8c0 1.1.4 1.7 1.2 1.7.8 0 1.2-.6 1.2-1.7 0-2.2 0-3.5-.1-3.9-.2-1.5-.6-3.7-1.1-6.7-.3-1.2-.7-3-1.3-5.4-.6-2.4-1.5-5.8-2.6-10.5-.9-3.9-1.3-6-1.3-6.6v-3c0-3.6 1.8-5.3 5.3-5.3 3.6 0 5.3 1.8 5.3 5.3v9h-4.1v-9.3c0-1.1-.4-1.7-1.2-1.7-.7 0-1.1.5-1.2 1.4v2.2c0 1.2.6 4.3 1.7 9.4l2.8 12.2c.3 1.6.9 4 1.7 7 .2.7.3 1.4.3 2.1v3.7z"/><path id="XMLID_239_" class="st0" d="M140.9 78.3h-3.6v42.4h-4.1V78.3h-3.6v-3.6h11.3v3.6z"/></g><g id="XMLID_213_"><path id="XMLID_236_" class="st0" d="M52.3 63.4v6.1h-1.1v-6.1h-1.6v-1H54v1h-1.7z"/><path id="XMLID_234_" class="st0" d="M56 65.2h3.1v-2.8h1.1v7.1h-1.1v-3.3H56v3.3h-1.1v-7.1H56v2.8z"/><path id="XMLID_232_" class="st0" d="M65.8 63.4h-2.9v1.7h2.8v1h-2.8v2.4h2.9v1h-3.9v-7.1h3.9v1z"/><path id="XMLID_230_" class="st0" d="M70.1 69.5v-7.6l5.2 5.4v-5h1.1V70l-5.2-5.4v5h-1.1z"/><path id="XMLID_228_" class="st0" d="M79.2 62.4v7.1h-1.1v-7.1h1.1z"/><path id="XMLID_225_" class="st0" d="M85.1 67.8H82l-.8 1.7H80l3.5-7.6 3.4 7.6h-1.2l-.6-1.7zm-.5-1l-1.1-2.4-1.1 2.4h2.2z"/><path id="XMLID_223_" class="st0" d="M91.2 65.8h2.9v.2c0 .5-.1 1-.2 1.4-.1.4-.3.7-.6 1.1-.7.7-1.5 1.1-2.5 1.1s-1.9-.4-2.6-1.1c-.7-.7-1.1-1.6-1.1-2.6s.4-1.9 1.1-2.6c.7-.7 1.6-1.1 2.6-1.1.6 0 1.1.1 1.6.3.5.2.9.6 1.4 1.1l-.8.7c-.6-.8-1.3-1.2-2.1-1.2s-1.4.3-1.9.8-.8 1.2-.8 1.9c0 .8.3 1.4.9 2 .5.5 1.1.7 1.7.7.5 0 1-.2 1.4-.5.4-.4.7-.8.7-1.3h-1.8v-.9z"/><path id="XMLID_220_" class="st0" d="M99.4 67.8h-3.1l-.8 1.7h-1.2l3.5-7.6 3.4 7.6H100l-.6-1.7zm-.4-1l-1.1-2.4-1.1 2.4H99z"/><path id="XMLID_217_" class="st0" d="M104.6 66.5l2.2 3h-1.3l-2-2.9h-.2v2.9h-1.1v-7.1h1.3c.9 0 1.6.2 2 .5.5.4.7.9.7 1.6 0 .5-.1.9-.4 1.3-.3.4-.7.6-1.2.7zm-1.3-.8h.3c1 0 1.5-.4 1.5-1.2 0-.7-.5-1.1-1.5-1.1h-.4v2.3z"/><path id="XMLID_214_" class="st0" d="M112.1 67.8H109l-.8 1.7H107l3.5-7.6 3.4 7.6h-1.2l-.6-1.7zm-.4-1l-1.1-2.4-1.1 2.4h2.2z"/></g><g id="loYik1_4_"><g id="XMLID_205_"><path id="XMLID_212_" class="st0" d="M82.2 23.5c4.6 7.8 3.2 15.3 0 23.1-3.8-6.3-4.8-17.3 0-23.1z"/><path id="XMLID_211_" class="st0" d="M97.4 32c1 8.1-7.3 13.8-14.7 14.7C86.8 41 91 35.6 97.4 32z"/><path id="XMLID_210_" class="st0" d="M81.1 46.7c-5.7-1.3-11-3.4-13.7-9.2-.6-1.2-.7-2.6-.9-3.9-.1-.4-.2-.9.2-1.2.4-.3.8.1 1.1.4 3.7 2.2 6.6 5.2 9.3 8.5 1.5 1.6 2.9 3.3 4 5.4z"/><path id="XMLID_209_" class="st0" d="M80.9 47.7c-3.2 1.8-6.4 3.4-10.1 3.5-2.3.1-4.4-.4-5.8-2.4-.3-.4-.8-.7-.6-1.2.2-.4.8-.3 1.2-.3 3.5-.2 7.1-.1 10.6-.1h4.7v.5z"/><path id="XMLID_208_" class="st0" d="M83.3 47.6c5.3-.3 10.5-.6 15.7-.2 1 .1.9.4.5 1.1-1.4 2.2-3.5 2.9-5.9 2.8-3.8-.2-7.1-1.7-10.3-3.7z"/><path id="XMLID_207_" class="st0" d="M82.9 48.2l5.7 5.4c.2.2.6.5.4.8-.2.3-.6.3-.9.3-1.4.1-2.4-.5-3.2-1.5-1.2-1.4-1.9-3-2-5z"/><path id="XMLID_206_" class="st0" d="M81.5 47.9c-1.1 5.4-4.2 8.1-6.6 6.5 2-2.3 4.3-4.2 6.6-6.5z"/></g></g><path id="XMLID_2_" class="st0" d="M82.5 164.9C37 164.9 0 127.9 0 82.5 0 37 37 0 82.5 0S165 37 165 82.5c-.1 45.4-37.1 82.4-82.5 82.4zM82.5 3C38.7 3 3 38.7 3 82.5S38.7 162 82.5 162 162 126.3 162 82.5C161.9 38.7 126.3 3 82.5 3z"/></svg>