<?xml version="1.0" encoding="utf-8"?>
<!-- Generator: Adobe Illustrator 22.0.1, SVG Export Plug-In . SVG Version: 6.00 Build 0)  -->
<svg version="1.1" id="Layer_1" xmlns="http://www.w3.org/2000/svg" xmlns:xlink="http://www.w3.org/1999/xlink" x="0px" y="0px"
	 viewBox="0 0 120 24" style="enable-background:new 0 0 120 24;" xml:space="preserve">
<style type="text/css">
	.st0{fill:#FFFFFF;}
</style>
<path class="st0" d="M17.4,17.7c0,0.4-0.1,0.7-0.4,0.9l-1.8,1.8c-0.2,0.2-0.6,0.4-0.9,0.4s-0.7-0.1-0.9-0.4l-3.9-3.9l-3.9,3.9
	c-0.2,0.2-0.6,0.4-0.9,0.4s-0.7-0.1-0.9-0.4l-1.8-1.8c-0.2-0.2-0.4-0.6-0.4-0.9c0-0.4,0.1-0.7,0.4-0.9l3.9-3.9L1.8,8.9
	C1.6,8.7,1.5,8.4,1.5,8c0-0.4,0.1-0.7,0.4-0.9l1.8-1.8C3.9,5,4.2,4.9,4.6,4.9S5.2,5,5.5,5.3l3.9,3.9l3.9-3.9
	c0.2-0.2,0.6-0.4,0.9-0.4s0.7,0.1,0.9,0.4L17,7.1c0.2,0.2,0.4,0.6,0.4,0.9c0,0.4-0.1,0.7-0.4,0.9l-3.9,3.9l3.9,3.9
	C17.3,17,17.4,17.3,17.4,17.7z M57.9,21.1l-8.7-8.7c-0.3-0.3-0.5-0.7-0.5-1.2c0-0.5,0.2-0.9,0.5-1.2l8.7-8.7
	c0.3-0.3,0.7-0.5,1.2-0.5c0.5,0,0.9,0.2,1.2,0.5l1,1c0.3,0.3,0.5,0.7,0.5,1.2c0,0.5-0.2,0.9-0.5,1.2l-6.5,6.5l6.5,6.5
	c0.3,0.3,0.5,0.7,0.5,1.2c0,0.5-0.2,0.9-0.5,1.2l-1,1c-0.3,0.3-0.7,0.5-1.2,0.5C58.7,21.6,58.3,21.4,57.9,21.1L57.9,21.1z
	 M110.7,11.1c0,0.5-0.2,0.9-0.5,1.2l-8.7,8.7c-0.3,0.3-0.7,0.5-1.2,0.5c-0.5,0-0.9-0.2-1.2-0.5l-1-1c-0.3-0.3-0.5-0.8-0.5-1.2
	c0-0.5,0.2-0.9,0.5-1.2l6.5-6.5l-6.5-6.5c-0.3-0.3-0.5-0.8-0.5-1.2c0-0.5,0.2-0.9,0.5-1.2l1-1c0.3-0.3,0.7-0.5,1.2-0.5
	s0.9,0.2,1.2,0.5l8.7,8.7C110.6,10.3,110.7,10.7,110.7,11.1L110.7,11.1z"/>
</svg>
