<svg version="1.1" id="Layer_1" xmlns="http://www.w3.org/2000/svg" x="0" y="0" viewBox="0 0 274.4 335.5" xml:space="preserve"><style>.st0{fill:#fff}.st1{fill:#309245}.st2{font-family:&apos;Futura-Medium&apos;}.st3{font-size:15.5046px}</style><g id="XMLID_294_"><path id="XMLID_149_" class="st0" d="M15.3 159.1s3.5 25.3 16.5 38.4c13.9 14 28.9 28.3 28.9 28.3l18.2-21.7 2.6 72.5-70-2.6 20.8-17.9c-.1 0-59.5-41.3-17-97z"/><path id="XMLID_150_" class="st0" d="M260 183.8s-3.5-25.3-16.5-38.4c-13.9-14-28.9-28.3-28.9-28.3l-18.2 21.7-2.6-72.5 70 2.6L243 86.8c.1 0 59.5 41.3 17 97z"/><circle id="XMLID_148_" class="st0" cx="89.5" cy="81.7" r="79"/><circle id="XMLID_152_" class="st0" cx="187.6" cy="253.6" r="79"/><g id="XMLID_159_"><g id="loYik1_2_"><g id="XMLID_142_"><path id="XMLID_158_" class="st1" d="M89.8 31.7c10.4 17.5 7.2 34.5.1 52-8.7-14.4-10.9-39.2-.1-52z"/><path id="XMLID_157_" class="st1" d="M124 50.8c2.2 18.2-16.4 31-33.2 33.2 9.3-13 18.9-25.2 33.2-33.2z"/><path id="XMLID_156_" class="st1" d="M87.3 83.8c-12.9-3-24.7-7.7-30.8-20.8-1.3-2.8-1.6-5.8-2-8.8-.1-.9-.4-2.1.5-2.7 1-.7 1.8.3 2.5.8 8.2 5 14.8 11.8 20.9 19.1 3.4 3.8 6.6 7.7 8.9 12.4z"/><path id="XMLID_155_" class="st1" d="M86.8 86.1c-7.1 4.1-14.5 7.6-22.8 8-5.1.3-9.8-1-13.1-5.4-.6-.8-1.7-1.7-1.3-2.7.4-.9 1.7-.6 2.7-.7 8-.5 15.9-.3 23.9-.2 3.5.1 7.1 0 10.6 0v1z"/><path id="XMLID_154_" class="st1" d="M92.3 85.8c11.8-.6 23.6-1.3 35.4-.5 2.1.2 1.9 1 1 2.4-3.1 4.9-8 6.4-13.3 6.3-8.4-.2-15.9-3.6-23.1-8.2z"/><path id="XMLID_153_" class="st1" d="M91.4 87.2c4.2 4.1 8.5 8.2 12.7 12.3.5.5 1.3 1 .9 1.8-.4.7-1.3.7-2 .7-3.1.2-5.4-1.2-7.2-3.5-2.6-3.1-4.2-6.8-4.4-11.3z"/><path id="XMLID_151_" class="st1" d="M88.3 86.4c-2.4 12.1-9.4 18.1-14.9 14.7 4.4-5.2 9.7-9.4 14.9-14.7z"/></g></g><text id="XMLID_74_" transform="translate(61.6 127.28)" class="st1 st2 st3">SATIVA</text></g><g id="XMLID_161_"><g id="loYik1_3_"><g id="XMLID_163_"><path id="XMLID_170_" class="st1" d="M187.9 205.1c10.4 17.5 7.2 34.5.1 52-8.7-14.4-10.8-39.1-.1-52z"/><path id="XMLID_169_" class="st1" d="M222.1 224.2c2.2 18.2-16.4 31-33.2 33.2 9.3-13 18.9-25.2 33.2-33.2z"/><path id="XMLID_168_" class="st1" d="M185.5 257.2c-12.9-3-24.7-7.7-30.8-20.8-1.3-2.8-1.6-5.8-2-8.8-.1-.9-.4-2.1.5-2.7 1-.7 1.8.3 2.5.8 8.2 5 14.8 11.8 20.9 19.1 3.3 3.8 6.5 7.8 8.9 12.4z"/><path id="XMLID_167_" class="st1" d="M185 259.5c-7.1 4.1-14.5 7.6-22.8 8-5.1.3-9.8-1-13.1-5.4-.6-.8-1.7-1.7-1.3-2.7.4-.9 1.7-.6 2.7-.7 8-.5 15.9-.3 23.9-.2 3.5.1 7.1 0 10.6 0-.1.3-.1.7 0 1z"/><path id="XMLID_166_" class="st1" d="M190.5 259.2c11.8-.6 23.6-1.3 35.4-.5 2.1.2 1.9 1 1 2.4-3.1 4.9-8 6.4-13.3 6.3-8.5-.2-16-3.6-23.1-8.2z"/><path id="XMLID_165_" class="st1" d="M189.6 260.6c4.2 4.1 8.5 8.2 12.7 12.3.5.5 1.3 1 .9 1.8-.4.7-1.3.7-2 .7-3.1.2-5.4-1.2-7.2-3.5-2.7-3.1-4.2-6.8-4.4-11.3z"/><path id="XMLID_164_" class="st1" d="M186.4 259.8c-2.4 12.1-9.4 18.1-14.9 14.7 4.4-5.2 9.7-9.4 14.9-14.7z"/></g></g><text id="XMLID_162_" transform="translate(159.083 300.697)" class="st1 st2 st3">INDICA</text></g></g></svg>