<svg version="1.1" id="Layer_1" xmlns="http://www.w3.org/2000/svg" x="0" y="0" viewBox="0 0 66.4 58.6" xml:space="preserve"><style>.st0{fill:#309245}</style><g id="loYik1_1_"><g id="XMLID_85_"><path id="XMLID_92_" class="st0" d="M33.5 0c8.6 14.6 6 28.7.1 43.2-7.2-11.9-9-32.5-.1-43.2z"/><path id="XMLID_91_" class="st0" d="M62 15.9C63.8 31 48.4 41.7 34.4 43.5 42.1 32.7 50.1 22.6 62 15.9z"/><path id="XMLID_90_" class="st0" d="M31.5 43.4C20.7 40.9 11 36.9 5.9 26.1c-1.1-2.3-1.3-4.8-1.6-7.3-.2-.8-.4-1.8.3-2.3.8-.6 1.5.3 2.1.7C13.6 21.3 19.1 27 24.2 33c2.7 3.2 5.3 6.5 7.3 10.4z"/><path id="XMLID_89_" class="st0" d="M31.1 45.3c-5.9 3.4-12 6.3-19 6.6-4.2.2-8.2-.8-10.9-4.5-.5-.7-1.5-1.4-1-2.3.3-.7 1.4-.5 2.2-.6 6.6-.4 13.2-.3 19.9-.1 2.9.1 5.9 0 8.8 0-.1.3 0 .6 0 .9z"/><path id="XMLID_88_" class="st0" d="M35.7 45.1c9.8-.5 19.6-1.1 29.5-.4 1.8.1 1.6.8.9 2-2.6 4.1-6.6 5.4-11.1 5.2-7.2-.2-13.4-3-19.3-6.8z"/><path id="XMLID_87_" class="st0" d="M34.9 46.2c3.5 3.4 7.1 6.8 10.6 10.2.4.4 1.1.9.8 1.5-.3.6-1.1.6-1.7.6-2.6.2-4.5-1-6-2.9-2.2-2.6-3.5-5.7-3.7-9.4z"/><path id="XMLID_86_" class="st0" d="M32.3 45.6c-2 10-7.8 15.1-12.4 12.2 3.6-4.4 8-7.8 12.4-12.2z"/></g></g></svg>