<?xml version="1.0" encoding="utf-8"?>
<!-- Generator: Adobe Illustrator 19.0.0, SVG Export Plug-In . SVG Version: 6.00 Build 0)  -->
<svg version="1.1" id="Layer_1" xmlns="http://www.w3.org/2000/svg" xmlns:xlink="http://www.w3.org/1999/xlink" x="0px" y="0px"
	 viewBox="0 0 32.8 29.3" style="enable-background:new 0 0 32.8 29.3;" xml:space="preserve">
<style type="text/css">
	.st0{fill:#FFFFFF;}
</style>
<g id="XMLID_247_">
	<path id="XMLID_248_" class="st0" d="M32.4,9.7l-9.4-9.4C22.8,0.1,22.6,0,22.2,0s-0.6,0.1-0.8,0.3c-0.2,0.2-0.3,0.5-0.3,0.8v4.7H17
		c-8.7,0-14,2.5-16,7.4c-0.6,1.6-1,3.7-1,6.1c0,2,0.8,4.8,2.3,8.3c0,0.1,0.1,0.2,0.2,0.4c0.1,0.2,0.2,0.4,0.2,0.5
		C2.8,28.7,2.9,28.9,3,29c0.1,0.2,0.3,0.3,0.5,0.3c0.2,0,0.3-0.1,0.4-0.2C4,29,4.1,28.8,4.1,28.6c0-0.1,0-0.3,0-0.5
		c0-0.2,0-0.4,0-0.4c-0.1-0.8-0.1-1.6-0.1-2.3c0-1.2,0.1-2.3,0.3-3.3c0.2-1,0.5-1.8,0.9-2.5c0.4-0.7,0.9-1.3,1.5-1.8
		c0.6-0.5,1.2-0.9,1.9-1.3c0.7-0.3,1.5-0.6,2.4-0.8c0.9-0.2,1.9-0.3,2.8-0.4c0.9-0.1,2-0.1,3.2-0.1h4.1v4.7c0,0.3,0.1,0.6,0.3,0.8
		c0.2,0.2,0.5,0.3,0.8,0.3c0.3,0,0.6-0.1,0.8-0.3l9.4-9.4c0.2-0.2,0.3-0.5,0.3-0.8C32.8,10.2,32.7,9.9,32.4,9.7z"/>
</g>
</svg>
