<?xml version="1.0" encoding="utf-8"?>
<!-- Generator: Adobe Illustrator 19.0.0, SVG Export Plug-In . SVG Version: 6.00 Build 0)  -->
<svg version="1.1" id="Layer_1" xmlns="http://www.w3.org/2000/svg" xmlns:xlink="http://www.w3.org/1999/xlink" x="0px" y="0px"
	 viewBox="0 0 164.8 163.6" style="enable-background:new 0 0 164.8 163.6;" xml:space="preserve">
<style type="text/css">
	.st0{fill:#FFFFFF;}
</style>
<g id="XMLID_238_">
	<path id="XMLID_311_" class="st0" d="M37.8,120.7h-4.1v-20.6h-2.4v20.6h-4.1v-46h4.1v21.6h2.4V74.7h4.1V120.7z"/>
	<path id="XMLID_308_" class="st0" d="M52.3,116.6c0,1.4-0.6,2.5-1.7,3.3c-1,0.7-2.2,1-3.7,1c-3.7,0-5.5-1.8-5.5-5.5V80.3
		c0-3.6,1.8-5.4,5.5-5.4c1.5,0,2.7,0.3,3.7,0.9c1.2,0.7,1.8,1.8,1.8,3.1v20.2h-6.8v17.4c0,0.8,0.5,1.2,1.4,1.2
		c0.9,0,1.3-0.4,1.3-1.2v-15.4h4.1V116.6z M48.2,96.4V79c0-0.8-0.4-1.2-1.3-1.2c-0.9,0-1.4,0.4-1.4,1.2v17.3H48.2z"/>
	<path id="XMLID_303_" class="st0" d="M67.1,120.7h-4.3c-0.3-0.8-0.5-2.5-0.5-5.1v-15.4c0-1.2-0.8-1.7-2.5-1.7v22.3h-4.1V74.6h4.9
		c3.9,0,5.8,1.7,5.8,5.1v12.3c0,2.7-1.3,4.2-4,4.7l0,0.2c2.7,0,4,1.3,4,3.9v15C66.4,118.1,66.7,119.8,67.1,120.7z M62.3,93.1V79.6
		c0-1.2-0.5-1.8-1.6-1.8h-0.9V95h0.9C61.8,95,62.3,94.4,62.3,93.1z"/>
	<path id="XMLID_299_" class="st0" d="M81.1,115.6c0,3.4-1.9,5.1-5.8,5.1h-4.9V74.9h4.9c3.9,0,5.8,1.7,5.8,5.1v13.7
		c0,2.3-1.3,3.7-4,4.2l0,0.2c2.7,0.3,4,1.5,4,3.9V115.6z M77,94.6V79.9c0-1.2-0.5-1.9-1.6-1.9h-0.9v18.3h0.9
		C76.5,96.4,77,95.8,77,94.6z M77,115.5v-14c0-1.2-0.5-1.8-1.6-1.8h-0.9v17.6h0.9C76.5,117.3,77,116.7,77,115.5z"/>
	<path id="XMLID_296_" class="st0" d="M90.6,120.7c0-0.4,0-1-0.1-1.7c-0.7,1.3-1.6,1.9-2.8,1.9c-1,0-1.9-0.4-2.6-1.2s-1-1.7-1-2.7
		v-16.7c0-1.2,1.1-2.4,3.2-3.8c2.1-1.4,3.2-2.8,3.2-4.4V78.9c0-0.8-0.4-1.2-1.3-1.2c-0.9,0-1.3,0.4-1.3,1.2v14H84V79.3
		c0-2.9,1.7-4.3,5.1-4.3c3.6,0,5.3,1.4,5.3,4.3v40.1v1.3H90.6z M90.4,116.6V97.2c-1,0.6-1.6,1-1.8,1.2c-0.6,0.6-0.9,1.2-0.9,1.9
		v16.4c0,0.8,0.4,1.2,1.3,1.2C90,117.8,90.4,117.4,90.4,116.6z"/>
	<path id="XMLID_245_" class="st0" d="M107,120.7h-9.1v-46h4.1v42.2h5V120.7z"/>
	<path id="XMLID_243_" class="st0" d="M113.6,120.7h-4.1v-46h4.1V120.7z"/>
	<path id="XMLID_241_" class="st0" d="M127.4,116c0,3.6-1.8,5.3-5.3,5.3c-3.6,0-5.3-1.8-5.3-5.3v-9.7h4.1v9.8c0,1.1,0.4,1.7,1.2,1.7
		c0.8,0,1.2-0.6,1.2-1.7c0-2.2,0-3.5-0.1-3.9c-0.2-1.5-0.6-3.7-1.1-6.7c-0.3-1.2-0.7-3-1.3-5.4c-0.6-2.4-1.5-5.8-2.6-10.5
		c-0.9-3.9-1.3-6-1.3-6.6v-3c0-3.6,1.8-5.3,5.3-5.3c3.6,0,5.3,1.8,5.3,5.3V89h-4.1v-9.3c0-1.1-0.4-1.7-1.2-1.7
		c-0.7,0-1.1,0.5-1.2,1.4c0-0.2,0,0.5,0,2.2c0,1.2,0.6,4.3,1.7,9.4l2.8,12.2c0.3,1.6,0.9,4,1.7,7c0.2,0.7,0.3,1.4,0.3,2.1V116z"/>
	<path id="XMLID_239_" class="st0" d="M140.9,78.3h-3.6v42.4h-4.1V78.3h-3.6v-3.6h11.3V78.3z"/>
</g>
<g id="XMLID_213_">
	<path id="XMLID_236_" class="st0" d="M52.3,63.4v6.1h-1.1v-6.1h-1.6v-1H54v1H52.3z"/>
	<path id="XMLID_234_" class="st0" d="M56,65.2h3.1v-2.8h1.1v7.1h-1.1v-3.3H56v3.3h-1.1v-7.1H56V65.2z"/>
	<path id="XMLID_232_" class="st0" d="M65.8,63.4h-2.9v1.7h2.8v1h-2.8v2.4h2.9v1h-3.9v-7.1h3.9V63.4z"/>
	<path id="XMLID_230_" class="st0" d="M70.1,69.5v-7.6l5.2,5.4v-5h1.1V70l-5.2-5.4v5H70.1z"/>
	<path id="XMLID_228_" class="st0" d="M79.2,62.4v7.1h-1.1v-7.1H79.2z"/>
	<path id="XMLID_225_" class="st0" d="M85.1,67.8H82l-0.8,1.7h-1.2l3.5-7.6l3.4,7.6h-1.2L85.1,67.8z M84.6,66.8l-1.1-2.4l-1.1,2.4
		H84.6z"/>
	<path id="XMLID_223_" class="st0" d="M91.2,65.8h2.9v0.2c0,0.5-0.1,1-0.2,1.4c-0.1,0.4-0.3,0.7-0.6,1.1c-0.7,0.7-1.5,1.1-2.5,1.1
		c-1,0-1.9-0.4-2.6-1.1c-0.7-0.7-1.1-1.6-1.1-2.6c0-1,0.4-1.9,1.1-2.6c0.7-0.7,1.6-1.1,2.6-1.1c0.6,0,1.1,0.1,1.6,0.3
		c0.5,0.2,0.9,0.6,1.4,1.1l-0.8,0.7c-0.6-0.8-1.3-1.2-2.1-1.2c-0.8,0-1.4,0.3-1.9,0.8c-0.5,0.5-0.8,1.2-0.8,1.9c0,0.8,0.3,1.4,0.9,2
		c0.5,0.5,1.1,0.7,1.7,0.7c0.5,0,1-0.2,1.4-0.5c0.4-0.4,0.7-0.8,0.7-1.3h-1.8V65.8z"/>
	<path id="XMLID_220_" class="st0" d="M99.4,67.8h-3.1l-0.8,1.7h-1.2l3.5-7.6l3.4,7.6h-1.2L99.4,67.8z M99,66.8l-1.1-2.4l-1.1,2.4
		H99z"/>
	<path id="XMLID_217_" class="st0" d="M104.6,66.5l2.2,3h-1.3l-2-2.9h-0.2v2.9h-1.1v-7.1h1.3c0.9,0,1.6,0.2,2,0.5
		c0.5,0.4,0.7,0.9,0.7,1.6c0,0.5-0.1,0.9-0.4,1.3C105.5,66.2,105.1,66.4,104.6,66.5z M103.3,65.7h0.3c1,0,1.5-0.4,1.5-1.2
		c0-0.7-0.5-1.1-1.5-1.1h-0.4V65.7z"/>
	<path id="XMLID_214_" class="st0" d="M112.1,67.8H109l-0.8,1.7h-1.2l3.5-7.6l3.4,7.6h-1.2L112.1,67.8z M111.7,66.8l-1.1-2.4
		l-1.1,2.4H111.7z"/>
</g>
<g id="loYik1_4_">
	<g id="XMLID_205_">
		<path id="XMLID_212_" class="st0" d="M82.2,23.5c4.6,7.8,3.2,15.3,0,23.1C78.4,40.3,77.4,29.3,82.2,23.5z"/>
		<path id="XMLID_211_" class="st0" d="M97.4,32c1,8.1-7.3,13.8-14.7,14.7C86.8,41,91,35.6,97.4,32z"/>
		<path id="XMLID_210_" class="st0" d="M81.1,46.7c-5.7-1.3-11-3.4-13.7-9.2c-0.6-1.2-0.7-2.6-0.9-3.9c-0.1-0.4-0.2-0.9,0.2-1.2
			c0.4-0.3,0.8,0.1,1.1,0.4c3.7,2.2,6.6,5.2,9.3,8.5C78.6,42.9,80,44.6,81.1,46.7z"/>
		<path id="XMLID_209_" class="st0" d="M80.9,47.7c-3.2,1.8-6.4,3.4-10.1,3.5c-2.3,0.1-4.4-0.4-5.8-2.4c-0.3-0.4-0.8-0.7-0.6-1.2
			c0.2-0.4,0.8-0.3,1.2-0.3c3.5-0.2,7.1-0.1,10.6-0.1c1.6,0,3.1,0,4.7,0C80.9,47.4,80.9,47.6,80.9,47.7z"/>
		<path id="XMLID_208_" class="st0" d="M83.3,47.6c5.3-0.3,10.5-0.6,15.7-0.2c1,0.1,0.9,0.4,0.5,1.1c-1.4,2.2-3.5,2.9-5.9,2.8
			C89.8,51.1,86.5,49.6,83.3,47.6z"/>
		<path id="XMLID_207_" class="st0" d="M82.9,48.2c1.9,1.8,3.8,3.6,5.7,5.4c0.2,0.2,0.6,0.5,0.4,0.8c-0.2,0.3-0.6,0.3-0.9,0.3
			c-1.4,0.1-2.4-0.5-3.2-1.5C83.7,51.8,83,50.2,82.9,48.2z"/>
		<path id="XMLID_206_" class="st0" d="M81.5,47.9c-1.1,5.4-4.2,8.1-6.6,6.5C76.9,52.1,79.2,50.2,81.5,47.9z"/>
	</g>
</g>
<path id="XMLID_2_" class="st0" d="M82.5,164.9C37,164.9,0,127.9,0,82.5C0,37,37,0,82.5,0c45.5,0,82.5,37,82.5,82.5
	C164.9,127.9,127.9,164.9,82.5,164.9z M82.5,3C38.7,3,3,38.7,3,82.5c0,43.8,35.7,79.5,79.5,79.5c43.8,0,79.5-35.7,79.5-79.5
	C161.9,38.7,126.3,3,82.5,3z"/>
</svg>
