<?xml version="1.0" encoding="utf-8"?>
<!-- Generator: Adobe Illustrator 19.0.0, SVG Export Plug-In . SVG Version: 6.00 Build 0)  -->
<svg version="1.1" id="Layer_1" xmlns="http://www.w3.org/2000/svg" xmlns:xlink="http://www.w3.org/1999/xlink" x="0px" y="0px"
	 viewBox="0 0 66.4 58.6" style="enable-background:new 0 0 66.4 58.6;" xml:space="preserve">
<style type="text/css">
	.st0{fill:#309245;}
</style>
<g id="loYik1_1_">
	<g id="XMLID_85_">
		<path id="XMLID_92_" class="st0" d="M33.5,0c8.6,14.6,6,28.7,0.1,43.2C26.4,31.3,24.6,10.7,33.5,0z"/>
		<path id="XMLID_91_" class="st0" d="M62,15.9C63.8,31,48.4,41.7,34.4,43.5C42.1,32.7,50.1,22.6,62,15.9z"/>
		<path id="XMLID_90_" class="st0" d="M31.5,43.4C20.7,40.9,11,36.9,5.9,26.1c-1.1-2.3-1.3-4.8-1.6-7.3C4.1,18,3.9,17,4.6,16.5
			c0.8-0.6,1.5,0.3,2.1,0.7C13.6,21.3,19.1,27,24.2,33C26.9,36.2,29.5,39.5,31.5,43.4z"/>
		<path id="XMLID_89_" class="st0" d="M31.1,45.3c-5.9,3.4-12,6.3-19,6.6c-4.2,0.2-8.2-0.8-10.9-4.5c-0.5-0.7-1.5-1.4-1-2.3
			c0.3-0.7,1.4-0.5,2.2-0.6c6.6-0.4,13.2-0.3,19.9-0.1c2.9,0.1,5.9,0,8.8,0C31,44.7,31.1,45,31.1,45.3z"/>
		<path id="XMLID_88_" class="st0" d="M35.7,45.1c9.8-0.5,19.6-1.1,29.5-0.4c1.8,0.1,1.6,0.8,0.9,2c-2.6,4.1-6.6,5.4-11.1,5.2
			C47.8,51.7,41.6,48.9,35.7,45.1z"/>
		<path id="XMLID_87_" class="st0" d="M34.9,46.2c3.5,3.4,7.1,6.8,10.6,10.2c0.4,0.4,1.1,0.9,0.8,1.5c-0.3,0.6-1.1,0.6-1.7,0.6
			c-2.6,0.2-4.5-1-6-2.9C36.4,53,35.1,49.9,34.9,46.2z"/>
		<path id="XMLID_86_" class="st0" d="M32.3,45.6c-2,10-7.8,15.1-12.4,12.2C23.5,53.4,27.9,50,32.3,45.6z"/>
	</g>
</g>
</svg>
