<?xml version="1.0" encoding="utf-8"?>
<!-- Generator: Adobe Illustrator 19.0.0, SVG Export Plug-In . SVG Version: 6.00 Build 0)  -->
<svg version="1.1" id="Layer_1" xmlns="http://www.w3.org/2000/svg" xmlns:xlink="http://www.w3.org/1999/xlink" x="0px" y="0px"
	 viewBox="0 0 274.4 335.5" style="enable-background:new 0 0 274.4 335.5;" xml:space="preserve">
<style type="text/css">
	.st0{fill:#FFFFFF;}
	.st1{fill:#309245;}
	.st2{font-family:'Futura-Medium';}
	.st3{font-size:15.5046px;}
</style>
<g id="XMLID_294_">
	<path id="XMLID_149_" class="st0" d="M15.3,159.1c0,0,3.5,25.3,16.5,38.4c13.9,14,28.9,28.3,28.9,28.3l18.2-21.7l2.6,72.5l-70-2.6
		l20.8-17.9C32.2,256.1-27.2,214.8,15.3,159.1z"/>
	<path id="XMLID_150_" class="st0" d="M260,183.8c0,0-3.5-25.3-16.5-38.4c-13.9-14-28.9-28.3-28.9-28.3l-18.2,21.7l-2.6-72.5l70,2.6
		l-20.8,17.9C243.1,86.8,302.5,128.1,260,183.8z"/>
	<circle id="XMLID_148_" class="st0" cx="89.5" cy="81.7" r="79"/>
	<circle id="XMLID_152_" class="st0" cx="187.6" cy="253.6" r="79"/>
	<g id="XMLID_159_">
		<g id="loYik1_2_">
			<g id="XMLID_142_">
				<path id="XMLID_158_" class="st1" d="M89.8,31.7c10.4,17.5,7.2,34.5,0.1,52C81.2,69.3,79,44.5,89.8,31.7z"/>
				<path id="XMLID_157_" class="st1" d="M124,50.8c2.2,18.2-16.4,31-33.2,33.2C100.1,71,109.7,58.8,124,50.8z"/>
				<path id="XMLID_156_" class="st1" d="M87.3,83.8c-12.9-3-24.7-7.7-30.8-20.8c-1.3-2.8-1.6-5.8-2-8.8c-0.1-0.9-0.4-2.1,0.5-2.7
					c1-0.7,1.8,0.3,2.5,0.8c8.2,5,14.8,11.8,20.9,19.1C81.8,75.2,85,79.1,87.3,83.8z"/>
				<path id="XMLID_155_" class="st1" d="M86.8,86.1c-7.1,4.1-14.5,7.6-22.8,8c-5.1,0.3-9.8-1-13.1-5.4c-0.6-0.8-1.7-1.7-1.3-2.7
					c0.4-0.9,1.7-0.6,2.7-0.7c8-0.5,15.9-0.3,23.9-0.2c3.5,0.1,7.1,0,10.6,0C86.8,85.4,86.8,85.8,86.8,86.1z"/>
				<path id="XMLID_154_" class="st1" d="M92.3,85.8c11.8-0.6,23.6-1.3,35.4-0.5c2.1,0.2,1.9,1,1,2.4c-3.1,4.9-8,6.4-13.3,6.3
					C107,93.8,99.5,90.4,92.3,85.8z"/>
				<path id="XMLID_153_" class="st1" d="M91.4,87.2c4.2,4.1,8.5,8.2,12.7,12.3c0.5,0.5,1.3,1,0.9,1.8c-0.4,0.7-1.3,0.7-2,0.7
					c-3.1,0.2-5.4-1.2-7.2-3.5C93.2,95.4,91.6,91.7,91.4,87.2z"/>
				<path id="XMLID_151_" class="st1" d="M88.3,86.4c-2.4,12.1-9.4,18.1-14.9,14.7C77.8,95.9,83.1,91.7,88.3,86.4z"/>
			</g>
		</g>
		<text id="XMLID_74_" transform="matrix(1 0 0 1 61.5999 127.2807)" class="st1 st2 st3">SATIVA</text>
	</g>
	<g id="XMLID_161_">
		<g id="loYik1_3_">
			<g id="XMLID_163_">
				<path id="XMLID_170_" class="st1" d="M187.9,205.1c10.4,17.5,7.2,34.5,0.1,52C179.3,242.7,177.2,218,187.9,205.1z"/>
				<path id="XMLID_169_" class="st1" d="M222.1,224.2c2.2,18.2-16.4,31-33.2,33.2C198.2,244.4,207.8,232.2,222.1,224.2z"/>
				<path id="XMLID_168_" class="st1" d="M185.5,257.2c-12.9-3-24.7-7.7-30.8-20.8c-1.3-2.8-1.6-5.8-2-8.8c-0.1-0.9-0.4-2.1,0.5-2.7
					c1-0.7,1.8,0.3,2.5,0.8c8.2,5,14.8,11.8,20.9,19.1C179.9,248.6,183.1,252.6,185.5,257.2z"/>
				<path id="XMLID_167_" class="st1" d="M185,259.5c-7.1,4.1-14.5,7.6-22.8,8c-5.1,0.3-9.8-1-13.1-5.4c-0.6-0.8-1.7-1.7-1.3-2.7
					c0.4-0.9,1.7-0.6,2.7-0.7c8-0.5,15.9-0.3,23.9-0.2c3.5,0.1,7.1,0,10.6,0C184.9,258.8,184.9,259.2,185,259.5z"/>
				<path id="XMLID_166_" class="st1" d="M190.5,259.2c11.8-0.6,23.6-1.3,35.4-0.5c2.1,0.2,1.9,1,1,2.4c-3.1,4.9-8,6.4-13.3,6.3
					C205.1,267.2,197.6,263.8,190.5,259.2z"/>
				<path id="XMLID_165_" class="st1" d="M189.6,260.6c4.2,4.1,8.5,8.2,12.7,12.3c0.5,0.5,1.3,1,0.9,1.8c-0.4,0.7-1.3,0.7-2,0.7
					c-3.1,0.2-5.4-1.2-7.2-3.5C191.3,268.8,189.8,265.1,189.6,260.6z"/>
				<path id="XMLID_164_" class="st1" d="M186.4,259.8c-2.4,12.1-9.4,18.1-14.9,14.7C175.9,269.3,181.2,265.1,186.4,259.8z"/>
			</g>
		</g>
		<text id="XMLID_162_" transform="matrix(1 0 0 1 159.0833 300.6967)" class="st1 st2 st3">INDICA</text>
	</g>
</g>
</svg>
