<?xml version="1.0" encoding="utf-8"?>
<!-- Generator: Adobe Illustrator 19.0.0, SVG Export Plug-In . SVG Version: 6.00 Build 0)  -->
<svg version="1.1" id="Layer_1" xmlns="http://www.w3.org/2000/svg" xmlns:xlink="http://www.w3.org/1999/xlink" x="0px" y="0px"
	 viewBox="0 0 190.9 99.1" style="enable-background:new 0 0 190.9 99.1;" xml:space="preserve">
<style type="text/css">
	.st0{fill:#309245;}
</style>
<g id="XMLID_10_">
	<g id="XMLID_36_">
		<path id="XMLID_58_" class="st0" d="M17.8,98.4h-6.9V64h-4v34.4H0V21.4h6.9v36.2h4V21.4h6.9V98.4z"/>
		<path id="XMLID_55_" class="st0" d="M42.1,91.5c0,2.3-1,4.1-2.9,5.5c-1.7,1.1-3.7,1.7-6.1,1.7c-6.2,0-9.3-3-9.3-9.1V30.7
			c0-6,3-9,9.1-9c2.4,0,4.5,0.5,6.1,1.5c2,1.2,3,3,3,5.3v33.9H30.7v29.2c0,1.3,0.8,1.9,2.4,1.9c1.4,0,2.1-0.6,2.1-1.9V65.7h6.9V91.5
			z M35.2,57.6V28.6c0-1.3-0.7-1.9-2.1-1.9c-1.6,0-2.4,0.6-2.4,1.9v29.1H35.2z"/>
		<path id="XMLID_52_" class="st0" d="M66.8,98.4h-7.2c-0.6-1.4-0.8-4.2-0.8-8.6V64c0-1.9-1.4-2.9-4.2-2.9v37.3h-6.9V21.1h8.2
			c6.5,0,9.8,2.8,9.8,8.5v20.6c0,4.4-2.3,7.1-6.8,7.9l0,0.3c4.5,0,6.8,2.2,6.8,6.5v25.1C65.7,94,66,96.8,66.8,98.4z M58.8,52.3V29.5
			c0-2-0.9-3-2.7-3h-1.5v28.8h1.5C57.9,55.4,58.8,54.3,58.8,52.3z"/>
		<path id="XMLID_48_" class="st0" d="M90.3,89.9c0,5.7-3.3,8.5-9.8,8.5h-8.2V21.7h8.2c6.5,0,9.8,2.8,9.8,8.5v23
			c0,3.9-2.3,6.2-6.8,7.1l0,0.3c4.5,0.4,6.8,2.6,6.8,6.5V89.9z M83.4,54.6V30.1c0-2.1-0.9-3.1-2.7-3.1h-1.5v30.7h1.5
			C82.5,57.6,83.4,56.6,83.4,54.6z M83.4,89.7V66.2c0-2-0.9-3-2.7-3h-1.5v29.5h1.5C82.5,92.7,83.4,91.7,83.4,89.7z"/>
		<path id="XMLID_45_" class="st0" d="M106.2,98.4c0-0.6-0.1-1.6-0.2-2.9c-1.1,2.2-2.7,3.2-4.7,3.2c-1.8,0-3.2-0.6-4.4-1.9
			s-1.8-2.8-1.8-4.5v-28c0-1.9,1.8-4.1,5.4-6.4c3.6-2.3,5.4-4.7,5.4-7.3V28.4c0-1.4-0.7-2-2.2-2c-1.5,0-2.2,0.7-2.2,2v23.5h-6.4V29
			c0-4.8,2.8-7.2,8.5-7.2c6,0,8.9,2.4,8.9,7.2v67.2v2.3H106.2z M105.9,91.5V59c-1.7,1.1-2.7,1.7-2.9,1.9c-1,0.9-1.5,2-1.5,3.1v27.4
			c0,1.4,0.7,2,2.2,2C105.2,93.6,105.9,92.9,105.9,91.5z"/>
		<path id="XMLID_43_" class="st0" d="M133.7,98.4h-15.3V21.4h6.9v70.7h8.4V98.4z"/>
		<path id="XMLID_41_" class="st0" d="M144.8,98.4h-6.9V21.4h6.9V98.4z"/>
		<path id="XMLID_39_" class="st0" d="M167.8,90.6c0,6-3,8.9-8.9,8.9c-6,0-8.9-3-8.9-8.9V74.3h6.9v16.5c0,1.9,0.7,2.8,2,2.8
			c1.4,0,2-0.9,2-2.8c0-3.7-0.1-5.8-0.2-6.6c-0.4-2.5-1-6.3-1.8-11.3c-0.5-2.1-1.3-5.1-2.3-9c-1-3.9-2.5-9.8-4.4-17.5
			c-1.5-6.5-2.3-10.1-2.3-11v-5c0-6,3-8.9,8.9-8.9c6,0,8.9,3,8.9,8.9v15h-6.9V29.8c0-1.9-0.7-2.8-2-2.8c-1.2,0-1.9,0.8-2,2.4
			c0-0.4,0,0.9,0,3.8c0,2,1,7.2,2.9,15.7l4.7,20.5c0.6,2.7,1.5,6.6,2.8,11.7c0.4,1.1,0.5,2.3,0.5,3.4V90.6z"/>
		<path id="XMLID_37_" class="st0" d="M190.5,27.4h-6v71h-6.9v-71h-6v-6h18.9V27.4z"/>
	</g>
	<g id="XMLID_11_">
		<path id="XMLID_34_" class="st0" d="M42,2.4v10.2h-1.8V2.4h-2.7V0.8h7.3v1.7H42z"/>
		<path id="XMLID_32_" class="st0" d="M48.2,5.4h5.2V0.8h1.8v11.9h-1.8V7.1h-5.2v5.6h-1.8V0.8h1.8V5.4z"/>
		<path id="XMLID_30_" class="st0" d="M64.6,2.4h-4.8v2.9h4.6V7h-4.6v4h4.8v1.7H58V0.8h6.6V2.4z"/>
		<path id="XMLID_28_" class="st0" d="M71.9,12.7V-0.1L80.6,9V0.8h1.8v12.7l-8.7-9.1v8.4H71.9z"/>
		<path id="XMLID_26_" class="st0" d="M87,0.8v11.9h-1.8V0.8H87z"/>
		<path id="XMLID_23_" class="st0" d="M96.9,9.8h-5.1l-1.3,2.9h-1.9L94.4,0l5.7,12.7h-2L96.9,9.8z M96.2,8.1L94.4,4l-1.9,4.1H96.2z"
			/>
		<path id="XMLID_21_" class="st0" d="M107.2,6.5h4.9v0.4c0,0.9-0.1,1.7-0.3,2.4c-0.2,0.6-0.6,1.2-1,1.8c-1.1,1.2-2.5,1.9-4.2,1.9
			c-1.7,0-3.1-0.6-4.3-1.8c-1.2-1.2-1.8-2.7-1.8-4.4c0-1.7,0.6-3.2,1.8-4.4c1.2-1.2,2.7-1.8,4.4-1.8c0.9,0,1.8,0.2,2.6,0.6
			c0.8,0.4,1.5,1,2.3,1.9l-1.3,1.2c-1-1.3-2.2-2-3.6-2c-1.3,0-2.3,0.4-3.2,1.3c-0.9,0.9-1.3,1.9-1.3,3.2c0,1.3,0.5,2.4,1.4,3.3
			c0.9,0.8,1.9,1.2,2.9,1.2c0.9,0,1.7-0.3,2.4-0.9c0.7-0.6,1.1-1.3,1.2-2.2h-3V6.5z"/>
		<path id="XMLID_18_" class="st0" d="M120.9,9.8h-5.1l-1.3,2.9h-1.9L118.4,0l5.7,12.7h-2L120.9,9.8z M120.2,8.1L118.4,4l-1.9,4.1
			H120.2z"/>
		<path id="XMLID_15_" class="st0" d="M129.7,7.6l3.7,5.1h-2.2l-3.4-4.9h-0.3v4.9h-1.8V0.8h2.1c1.6,0,2.7,0.3,3.4,0.9
			c0.8,0.7,1.2,1.5,1.2,2.6c0,0.8-0.2,1.6-0.7,2.2C131.1,7,130.5,7.4,129.7,7.6z M127.4,6.2h0.6c1.7,0,2.6-0.7,2.6-2
			c0-1.2-0.8-1.8-2.5-1.8h-0.6V6.2z"/>
		<path id="XMLID_12_" class="st0" d="M142.2,9.8h-5.1l-1.3,2.9h-1.9L139.7,0l5.7,12.7h-2L142.2,9.8z M141.4,8.1L139.7,4l-1.9,4.1
			H141.4z"/>
	</g>
</g>
</svg>
